<?xml version="1.0" encoding="UTF-8"?>
<svg version="1.1" viewBox="0 0 165 32" xmlns="http://www.w3.org/2000/svg">
  <g fill="none" fill-rule="evenodd">
    <g transform="translate(-718 -241)" fill="#FFFFFE">
      <path d="m846.05 257.76c0.90994-0.80644 2.042-1.2 3.4317-1.2 1.2873 0 2.3676 0.37627 3.2764 1.1482 0.90994 0.73852 1.2873 1.5956 1.1676 2.5735h-9.1447c-0.052829-0.89161 0.3601-1.7326 1.269-2.5217zm6.2629 10.415c-0.68677 0.4291-1.5266 0.63502-2.5228 0.63502-1.4576 0-2.6597-0.41185-3.6365-1.2355-0.99619-0.84094-1.5094-1.9902-1.545-3.4834h15.546c0.30834-3.8608-0.5671-6.7081-2.6263-8.5787-2.0582-1.8695-4.8721-2.8139-8.4234-2.7967-3.174-0.017251-5.7993 0.87544-7.8757 2.677-2.0754 1.7681-3.1223 4.2381-3.105 7.3949-0.01725 2.6252 0.77194 4.8042 2.3676 6.5367 1.9902 2.1627 5.0791 3.243 9.2471 3.243 2.6252 0 4.8042-0.48085 6.5723-1.4242 1.7326-0.97786 3.0533-2.6587 3.9287-5.0435l-5.7303-0.5671c-0.79027 1.3218-1.5277 2.2134-2.1962 2.6425zm-11.908-15.459-7.051 20.006h-5.6106l-3.7918-12.165-3.7411 12.165h-5.644l-7.3615-19.851h6.692l4.0656 11.255 3.2085-11.41 5.7486 0.15525 3.7745 11.305 3.9632-11.461h5.7475zm-76.076 11.444c-0.10242 1.2528-0.25767 2.1455-0.48085 2.7104-0.22317 0.54985-0.72019 1.0124-1.4921 1.3735-0.77194 0.3601-1.6646 0.54877-2.677 0.60052-1.0113 0.05175-1.9212-0.12075-2.7277-0.51427-0.80644-0.39567-1.2183-0.96169-1.2183-1.6819-0.01725-0.73744 0.30942-1.3735 0.94336-1.9223 0.63502-0.56602 1.8533-0.96062 3.6549-1.2 1.8016-0.24042 3.1395-0.37735 3.9977-0.3946v1.0285zm6.1939 1.9396c0.01725-2.0086 0.05175-4.0333 0.069001-6.0569 0-2.2479-0.27492-3.7929-0.84094-4.6327-0.56602-0.84094-1.5611-1.545-2.9508-2.0927-1.3897-0.54985-3.5179-0.82369-6.3491-0.82369-3.1395 0-5.4898 0.44635-7.0855 1.3552-1.5956 0.90886-2.7115 2.5746-3.3627 4.9583l5.4392 0.78919c0.63394-1.3552 1.269-2.1789 1.904-2.4538 0.63502-0.2911 1.6474-0.41185 3.0543-0.3946 1.407 0.01725 2.4193 0.18867 3.0198 0.51535 0.59944 0.3256 0.90886 0.97786 0.90886 1.973v0.51427c-1.1838 0.15417-3.0888 0.30942-5.713 0.4981-2.6252 0.18867-4.5982 0.61777-5.9028 1.3035-1.3035 0.68677-2.1962 1.5277-2.6587 2.5056-0.4636 0.97679-0.70402 2.1789-0.70402 3.5686 0 1.3897 0.72127 2.6242 2.1444 3.7228 1.4242 1.0986 3.3799 1.6485 5.8683 1.6485 1.407 0 2.7277-0.22425 3.9632-0.65335 1.2528-0.4291 2.4193-1.0803 3.5007-1.9385 0.050672 0.10242 0.11967 0.30834 0.2221 0.61777 0.24042 0.66952 0.44635 1.1838 0.61777 1.5266h6.3146c-0.56602-0.94336-0.94336-1.8188-1.1331-2.6252-0.2221-0.82261-0.3256-2.0927-0.3256-3.8252zm29.151 1.2517c-0.94444 1.0124-2.0765 1.5277-3.4144 1.5277-1.6981 0-3.0026-0.68677-3.946-2.042-0.65227-0.94444-0.97786-2.4711-0.97786-4.581 0-1.9568 0.4636-3.4144 1.407-4.3934 0.92611-0.99404 2.0754-1.4921 3.4662-1.4921 1.4242 0 2.6069 0.4981 3.5169 1.5105 0.90886 0.97786 1.3563 2.6069 1.3563 4.8732 0 2.0409-0.46467 3.5686-1.408 4.5972zm75.356-26.354h-135.78v12.473h-12.988v-12.473h-8.2531v31.689h8.2531v-13.297h13.039v13.297h7.9447v-25.409h53.187v7.3259c-1.3714-1.4932-3.2937-2.2307-5.7475-2.2307-2.6942 0-4.9066 0.87544-6.6736 2.6252-0.54985 0.53152-1.0124 1.1665-1.3897 1.8706v-3.9977c-0.034501-0.01725-0.72127-0.0345-2.0765-0.0345-0.96062 0-1.8188 0.20592-2.5735 0.63394-0.75469 0.41292-1.6129 1.27-2.5573 2.5918v-2.7794h-5.5243v19.285h5.9534v-5.7303c0-3.3293 0.22317-5.3367 0.65227-6.0235 0.4291-0.70186 0.90994-1.2517 1.4242-1.6463 0.49702-0.41185 1.201-0.70294 2.0765-0.89161 0.68569-0.15525 1.3714-0.1725 2.0409-0.052828-0.42802 1.2539-0.65119 2.7287-0.65119 4.3934 0 3.2764 0.90886 5.8165 2.7104 7.6515 1.8016 1.8188 3.9632 2.7298 6.5022 2.7298 1.2528 0 2.4894-0.276 3.7066-0.82477 1.2183-0.54877 2.1099-1.1493 2.6597-1.7843v2.1789l5.9362-0.01725v-25.272h54.956v25.444h6.4515v-25.444h2.3331v25.444h6.4515v-29.064c0.08625-1.5956-0.60052-2.4872-2.0592-2.6597zm5.74 2.2015h-0.31374v-0.44203h0.32128c0.18328 0 0.27708 0.079782 0.27708 0.22102 0 0.14339-0.08086 0.22102-0.28463 0.22102zm0.6609-0.26414c0-0.26846-0.20377-0.47438-0.58004-0.47438h-0.76224v1.7315h0.36764v-0.69324h0.24581c0.27924 0 0.32667 0.090563 0.32667 0.27924v0.024797c0 0.18328 0.005391 0.31374 0.035578 0.38921h0.35686c-0.024797-0.079782-0.024797-0.21347-0.024797-0.32883v-0.085173c0-0.31266-0.13045-0.39999-0.2167-0.43233 0.12614-0.053907 0.2512-0.17897 0.2512-0.41077zm-0.6706 2.0355c-0.90671 0-1.6441-0.73744-1.6441-1.6441s0.73744-1.6442 1.6441-1.6442 1.6442 0.73744 1.6442 1.6442-0.73744 1.6441-1.6442 1.6441zm0-3.6311c-1.0975 0-1.9859 0.89054-1.9859 1.987 0 1.0975 0.88838 1.9859 1.9859 1.9859 1.0965 0 1.987-0.88838 1.987-1.9859 0-1.0965-0.89054-1.987-1.987-1.987z"/>
    </g>
  </g>
</svg>
